#!OML:ASF H:\Dans Jumps\Project 1\Capture day 1\Session 1\subject.ASF
:FULLY-SPECIFIED
:DEGREES
393
root 0.492935 17.7046 -1.86421 7.24405 0.920823 -0.767401
lowerback -0.477593 -0.242024 -0.831757
upperback 4.48888 -0.365009 1.62982
thorax 4.9175 -0.252731 2.1349
lowerneck -12.509 -0.0557786 -1.99536
upperneck 36.009 0.102703 1.0569
head 14.4679 -0.0796695 0.805679
rclavicle 4.27387e-015 -4.77083e-015
rhumerus -17.2757 -22.106 -81.3432
rradius 21.3307
rwrist 37.3722
rhand -20.364 -26.3681
rfingers 7.12502
rthumb 5.98842 -56.2635
lclavicle 4.27387e-015 -4.77083e-015
lhumerus -16.324 -0.64777 89.3012
lradius 16.9971
lwrist 1.35486
lhand -26.2506 -5.9282
lfingers 7.12502
lthumb 0.303701 24.0513
rfemur -16.4322 -2.75819 18.8243
rtibia 25.3318
rfoot -13.9665 -2.22056
rtoes 10.9821
lfemur -15.5312 6.77965 -18.4405
ltibia 21.0631
lfoot -10.2385 4.69998
ltoes 3.43177
394
root 0.493116 17.7064 -1.85893 7.25049 0.922134 -0.767655
lowerback -0.514421 -0.235588 -0.822621
upperback 4.48328 -0.356569 1.62812
thorax 4.93215 -0.248193 2.12834
lowerneck -12.4954 -0.0561611 -1.99303
upperneck 35.9901 0.103017 1.05272
head 14.456 -0.0795423 0.803404
rclavicle -5.96354e-015 0
rhumerus -17.3428 -22.0844 -81.3528
rradius 21.3435
rwrist 37.3427
rhand -20.3336 -26.3779
rfingers 7.12502
rthumb 6.0177 -56.2724
lclavicle -5.96354e-015 0
lhumerus -16.4251 -0.536695 89.2963
lradius 16.9464
lwrist 1.2458
lhand -26.249 -5.96555
lfingers 7.12502
lthumb 0.305231 24.014
rfemur -16.3836 -2.74451 18.8227
rtibia 25.2652
rfoot -13.9563 -2.23097
rtoes 11.0008
lfemur -15.4777 6.76704 -18.4378
ltibia 20.9853
lfoot -10.2188 4.70664
ltoes 3.45122
395
root 0.493316 17.7082 -1.85376 7.26093 0.923094 -0.760587
lowerback -0.551911 -0.231403 -0.821646
upperback 4.47614 -0.350779 1.62433
thorax 4.94576 -0.245239 2.12407
lowerneck -12.4795 -0.055188 -1.99012
upperneck 35.968 0.105555 1.04717
head 14.442 -0.0785774 0.800765
rclavicle -4.77083e-015 3.97569e-015
rhumerus -17.4137 -22.039 -81.3702
rradius 21.3661
rwrist 37.2909
rhand -20.2988 -26.398
rfingers 7.12502
rthumb 6.05137 -56.2915
lclavicle -4.77083e-015 3.97569e-015
lhumerus -16.527 -0.43255 89.2919
lradius 16.8947
lwrist 1.14638
lhand -26.2578 -5.9983
lfingers 7.12502
lthumb 0.296792 23.9812
rfemur -16.3406 -2.73303 18.8128
rtibia 25.2006
rfoot -13.9483 -2.23869
rtoes 11.0327
lfemur -15.4258 6.75418 -18.4439
ltibia 20.902
lfoot -10.1971 4.71276
ltoes 3.46717
396
root 0.493633 17.71 -1.84858 7.27358 0.924364 -0.744054
lowerback -0.59143 -0.229192 -0.829225
upperback 4.46888 -0.347214 1.61742
thorax 4.96052 -0.243678 2.12127
lowerneck -12.4646 -0.0533753 -1.98934
upperneck 35.9467 0.108906 1.04442
head 14.4286 -0.0772056 0.799788
rclavicle 2.08724e-015 -7.15625e-015
rhumerus -17.484 -21.9867 -81.3928
rradius 21.3898
rwrist 37.2325
rhand -20.2676 -26.4186
rfingers 7.12502
rthumb 6.08144 -56.3113
lclavicle 2.08724e-015 -7.15625e-015
lhumerus -16.6291 -0.342755 89.2889
lradius 16.8428
lwrist 1.06042
lhand -26.2683 -6.02699
lfingers 7.12502
lthumb 0.286623 23.9526
rfemur -16.3005 -2.72856 18.7921
rtibia 25.1377
rfoot -13.942 -2.24091
rtoes 11.0672
lfemur -15.3727 6.74075 -18.4615
ltibia 20.8118
lfoot -10.1724 4.71727
ltoes 3.47602
